<svg width="1440" height="900" viewBox="0 0 1440 900" fill="none" xmlns="http://www.w3.org/2000/svg">
<g clip-path="url(#clip0_105_132)">
<rect width="1440" height="900" fill="url(#paint0_linear_105_132)"/>
<circle cx="185.091" cy="716.091" r="241.384" transform="rotate(147.643 185.091 716.091)" fill="url(#paint1_radial_105_132)"/>
<g filter="url(#filter0_f_105_132)">
<path d="M1539.51 1021C1558.99 903.632 1537.38 627.627 1295.06 462.548C992.173 256.199 919.813 137.194 911 10" stroke="url(#paint2_linear_105_132)" stroke-width="379" stroke-linecap="round"/>
</g>
<g filter="url(#filter1_f_105_132)">
<path d="M1246.51 926C1265.99 808.632 1244.38 532.627 1002.06 367.548C699.173 161.199 626.813 42.1938 618 -85" stroke="url(#paint3_linear_105_132)" stroke-width="379" stroke-linecap="round"/>
</g>
<path d="M1026 894C1047 786.5 1023.7 533.7 762.5 382.5C436 193.5 358 84.5 348.5 -32" stroke="url(#paint4_linear_105_132)" stroke-width="379" stroke-linecap="round"/>
</g>
<defs>
<filter id="filter0_f_105_132" x="710.292" y="-190.708" width="1035.14" height="1412.44" filterUnits="userSpaceOnUse" color-interpolation-filters="sRGB">
<feFlood flood-opacity="0" result="BackgroundImageFix"/>
<feBlend mode="normal" in="SourceGraphic" in2="BackgroundImageFix" result="shape"/>
<feGaussianBlur stdDeviation="5.6" result="effect1_foregroundBlur_105_132"/>
</filter>
<filter id="filter1_f_105_132" x="423.492" y="-279.508" width="1022.74" height="1400.04" filterUnits="userSpaceOnUse" color-interpolation-filters="sRGB">
<feFlood flood-opacity="0" result="BackgroundImageFix"/>
<feBlend mode="normal" in="SourceGraphic" in2="BackgroundImageFix" result="shape"/>
<feGaussianBlur stdDeviation="2.5" result="effect1_foregroundBlur_105_132"/>
</filter>
<linearGradient id="paint0_linear_105_132" x1="2.14577e-05" y1="900" x2="1440" y2="1.60933e-05" gradientUnits="userSpaceOnUse">
<stop offset="0.209161" stop-color="#434343"/>
<stop offset="1"/>
</linearGradient>
<radialGradient id="paint1_radial_105_132" cx="0" cy="0" r="1" gradientUnits="userSpaceOnUse" gradientTransform="translate(28.0229 784.989) rotate(-22.8213) scale(432.292)">
<stop offset="0.230769" stop-color="white"/>
<stop offset="0.663462" stop-color="#737373"/>
<stop offset="0.903846" stop-color="#202020"/>
</radialGradient>
<linearGradient id="paint2_linear_105_132" x1="1407.5" y1="280.5" x2="1108.2" y2="566.435" gradientUnits="userSpaceOnUse">
<stop offset="0.1875" stop-color="white"/>
<stop offset="0.626128" stop-color="#787878"/>
<stop offset="1" stop-color="#171717"/>
</linearGradient>
<linearGradient id="paint3_linear_105_132" x1="979.5" y1="593.5" x2="1363.72" y2="261.611" gradientUnits="userSpaceOnUse">
<stop stop-color="#111819"/>
<stop offset="0.245192" stop-color="#304A4D"/>
<stop offset="0.557692" stop-color="#77A6AC"/>
</linearGradient>
<linearGradient id="paint4_linear_105_132" x1="710" y1="624.5" x2="1094.5" y2="228.482" gradientUnits="userSpaceOnUse">
<stop stop-color="#111819"/>
<stop offset="0.245192" stop-color="#304A4D"/>
<stop offset="0.557692" stop-color="#77A6AC"/>
</linearGradient>
<clipPath id="clip0_105_132">
<rect width="1440" height="900" fill="white"/>
</clipPath>
</defs>
</svg>
