<svg width="82" height="19" viewBox="0 0 82 19" fill="var(--variable-collection-black)" xmlns="http://www.w3.org/2000/svg">
<path d="M8.95404 18.1343C13.8992 18.1343 17.9081 14.0747 17.9081 9.06712C17.9081 4.05949 13.8992 0 8.95404 0C4.00886 0 0 4.05949 0 9.06712C0 14.0747 4.00886 18.1343 8.95404 18.1343Z" fill="current"/>
<path d="M30.2501 18.1343C35.329 18.1343 39.4462 14.0747 39.4462 9.06712C39.4462 4.05949 35.329 0 30.2501 0C25.1713 0 21.0541 4.05949 21.0541 9.06712C21.0541 14.0747 25.1713 18.1343 30.2501 18.1343Z" fill="current"/>
<path d="M51.6672 18.1343C56.6792 18.1343 60.7423 14.0747 60.7423 9.06712C60.7423 4.05949 56.6792 0 51.6672 0C46.6552 0 42.5922 4.05949 42.5922 9.06712C42.5922 14.0747 46.6552 18.1343 51.6672 18.1343Z" fill="current"/>
<path d="M81.7422 9C81.7422 13.9706 77.7128 18 72.7422 18C67.7716 18 63.7422 13.9706 63.7422 9C63.7422 4.02944 67.7716 0 72.7422 0C77.7128 0 81.7422 4.02944 81.7422 9ZM66.9787 9C66.9787 12.1831 69.5591 14.7635 72.7422 14.7635C75.9253 14.7635 78.5057 12.1831 78.5057 9C78.5057 5.81689 75.9253 3.23648 72.7422 3.23648C69.5591 3.23648 66.9787 5.81689 66.9787 9Z" fill="current"/>
</svg>
