<svg width="201" height="31" viewBox="0 0 201 31" fill="currentColor" xmlns="http://www.w3.org/2000/svg">
<path d="M69.4632 31C69.009 31 68.6373 30.8473 68.3481 30.5419C68.0592 30.2567 67.9144 29.8902 67.9144 29.4424C67.9144 28.974 68.0592 28.5975 68.3481 28.3123C68.6373 28.0272 69.009 27.8847 69.4632 27.8847C70.2894 27.8847 71.0123 27.7015 71.6318 27.335C72.2513 26.9888 72.7366 26.5103 73.0877 25.8995C73.4594 25.2887 73.6453 24.5862 73.6453 23.7921V8.70443C73.6453 8.23604 73.7897 7.85952 74.0789 7.57439C74.3887 7.28925 74.7706 7.1468 75.2251 7.1468C75.6999 7.1468 76.082 7.28925 76.3712 7.57439C76.6601 7.85952 76.8048 8.23604 76.8048 8.70443V23.7921C76.8048 25.197 76.4847 26.439 75.8446 27.5182C75.2251 28.5975 74.3679 29.4424 73.2736 30.0532C72.179 30.6843 70.909 31 69.4632 31ZM75.2251 4.42857C74.6675 4.42857 74.182 4.23506 73.7692 3.84828C73.3766 3.44097 73.1806 2.96256 73.1806 2.41281C73.1806 1.86305 73.3766 1.39467 73.7692 1.00788C74.182 0.600577 74.6675 0.397045 75.2251 0.397045C75.7826 0.397045 76.2574 0.600577 76.65 1.00788C77.0628 1.39467 77.2695 1.86305 77.2695 2.41281C77.2695 2.96256 77.0628 3.44097 76.65 3.84828C76.2574 4.23506 75.7826 4.42857 75.2251 4.42857ZM89.8182 24.0059C88.3933 24.0059 87.1129 23.7108 85.9772 23.1202C84.862 22.5094 83.9739 21.6236 83.3132 20.4631C82.6729 19.3025 82.353 17.8773 82.353 16.1872V8.67389C82.353 8.22603 82.4974 7.85952 82.7866 7.57439C83.0964 7.26897 83.4783 7.11626 83.9327 7.11626C84.387 7.11626 84.7587 7.26897 85.0479 7.57439C85.3576 7.85952 85.5125 8.22603 85.5125 8.67389V16.1872C85.5125 17.3275 85.7294 18.2743 86.163 19.0276C86.5967 19.7606 87.1852 20.3103 87.9287 20.6768C88.6721 21.0231 89.5084 21.1961 90.4377 21.1961C91.3256 21.1961 92.1104 21.0231 92.7919 20.6768C93.494 20.3306 94.0515 19.8625 94.4646 19.2719C94.8775 18.6814 95.0841 18.0197 95.0841 17.2867H97.0356C97.0356 18.5492 96.7155 19.6892 96.0754 20.7074C95.4559 21.7255 94.5987 22.5296 93.5044 23.1202C92.4304 23.7108 91.2017 24.0059 89.8182 24.0059ZM96.6639 23.8532C96.2094 23.8532 95.8276 23.7108 95.5178 23.4256C95.2286 23.1202 95.0841 22.7434 95.0841 22.2956V8.67389C95.0841 8.2055 95.2286 7.82898 95.5178 7.54384C95.8276 7.25871 96.2094 7.11626 96.6639 7.11626C97.1387 7.11626 97.5209 7.25871 97.81 7.54384C98.099 7.82898 98.2437 8.2055 98.2437 8.67389V22.2956C98.2437 22.7434 98.099 23.1202 97.81 23.4256C97.5209 23.7108 97.1387 23.8532 96.6639 23.8532ZM109.973 23.9754C108.527 23.9754 107.185 23.7616 105.946 23.334C104.727 22.8861 103.777 22.3261 103.096 21.6542C102.786 21.3285 102.652 20.962 102.693 20.5547C102.755 20.1271 102.962 19.7809 103.313 19.5163C103.726 19.1906 104.128 19.0581 104.521 19.1192C104.934 19.16 105.285 19.333 105.574 19.6384C105.925 20.0252 106.482 20.3917 107.247 20.7379C108.031 21.0636 108.899 21.2266 109.849 21.2266C111.046 21.2266 111.955 21.0331 112.575 20.6463C113.215 20.2595 113.545 19.7606 113.566 19.1498C113.586 18.5389 113.287 18.0094 112.667 17.5616C112.068 17.1137 110.964 16.7472 109.353 16.4621C107.267 16.0548 105.749 15.4439 104.8 14.6296C103.87 13.8152 103.406 12.8173 103.406 11.6365C103.406 10.598 103.715 9.74286 104.335 9.07094C104.954 8.37873 105.749 7.86954 106.72 7.54384C107.69 7.19762 108.703 7.02463 109.756 7.02463C111.119 7.02463 112.327 7.23843 113.38 7.66601C114.433 8.0936 115.269 8.68415 115.889 9.43744C116.178 9.76314 116.312 10.1094 116.292 10.4759C116.271 10.8221 116.095 11.1172 115.765 11.3616C115.435 11.5856 115.042 11.6567 114.588 11.5754C114.133 11.494 113.752 11.3108 113.442 11.0256C112.925 10.5369 112.368 10.201 111.769 10.0177C111.17 9.83449 110.478 9.74286 109.694 9.74286C108.785 9.74286 108.011 9.89557 107.371 10.201C106.751 10.5064 106.441 10.9543 106.441 11.5448C106.441 11.9113 106.534 12.2473 106.72 12.5527C106.926 12.8378 107.319 13.1025 107.897 13.3468C108.475 13.5709 109.322 13.7947 110.437 14.0187C111.986 14.3241 113.204 14.7109 114.092 15.1793C115.001 15.6477 115.651 16.1975 116.044 16.8286C116.436 17.4394 116.632 18.1521 116.632 18.9665C116.632 19.903 116.374 20.7482 115.858 21.5015C115.362 22.2548 114.619 22.8556 113.628 23.3034C112.657 23.7513 111.439 23.9754 109.973 23.9754ZM126.792 23.8532C125.759 23.8532 124.83 23.5986 124.004 23.0897C123.178 22.5602 122.527 21.8477 122.052 20.9517C121.577 20.0557 121.34 19.0479 121.34 17.9281V3.35961C121.34 2.91174 121.484 2.54524 121.773 2.2601C122.062 1.97496 122.434 1.83251 122.889 1.83251C123.343 1.83251 123.715 1.97496 124.004 2.2601C124.293 2.54524 124.437 2.91174 124.437 3.35961V17.9281C124.437 18.7424 124.664 19.4246 125.119 19.9744C125.573 20.5241 126.131 20.799 126.792 20.799H127.845C128.217 20.799 128.526 20.9415 128.774 21.2266C129.042 21.5117 129.177 21.8782 129.177 22.3261C129.177 22.774 129.001 23.1405 128.65 23.4256C128.32 23.7108 127.886 23.8532 127.349 23.8532H126.792ZM119.915 10.3842C119.481 10.3842 119.13 10.2621 118.861 10.0177C118.593 9.7734 118.459 9.46798 118.459 9.10148C118.459 8.69417 118.593 8.36847 118.861 8.12414C119.13 7.8798 119.481 7.75764 119.915 7.75764H127.07C127.504 7.75764 127.855 7.8798 128.124 8.12414C128.392 8.36847 128.526 8.69417 128.526 9.10148C128.526 9.46798 128.392 9.7734 128.124 10.0177C127.855 10.2621 127.504 10.3842 127.07 10.3842H119.915ZM140.742 23.9754C139.131 23.9754 137.676 23.6089 136.375 22.8759C135.094 22.1226 134.072 21.1044 133.308 19.8217C132.565 18.5389 132.193 17.0932 132.193 15.4847C132.193 13.8763 132.534 12.4408 133.215 11.1783C133.917 9.89557 134.867 8.88768 136.065 8.15468C137.263 7.40139 138.615 7.02463 140.123 7.02463C141.341 7.02463 142.466 7.27923 143.499 7.78818C144.531 8.27685 145.399 8.94877 146.101 9.80394V1.55764C146.101 1.08925 146.246 0.712725 146.535 0.427588C146.845 0.142451 147.226 0 147.681 0C148.156 0 148.538 0.142451 148.827 0.427588C149.116 0.712725 149.261 1.08925 149.261 1.55764V15.4847C149.261 17.0932 148.879 18.5389 148.115 19.8217C147.371 21.1044 146.359 22.1226 145.079 22.8759C143.798 23.6089 142.353 23.9754 140.742 23.9754ZM140.742 21.2266C141.795 21.2266 142.735 20.9823 143.561 20.4936C144.387 19.9846 145.038 19.2922 145.513 18.4168C145.987 17.5413 146.225 16.564 146.225 15.4847C146.225 14.3852 145.987 13.4079 145.513 12.5527C145.038 11.6975 144.387 11.0256 143.561 10.5369C142.735 10.028 141.795 9.7734 140.742 9.7734C139.71 9.7734 138.77 10.028 137.923 10.5369C137.097 11.0256 136.437 11.6975 135.941 12.5527C135.466 13.4079 135.229 14.3852 135.229 15.4847C135.229 16.564 135.466 17.5413 135.941 18.4168C136.437 19.2922 137.097 19.9846 137.923 20.4936C138.77 20.9823 139.71 21.2266 140.742 21.2266ZM181.907 23.8532C180.875 23.8532 179.945 23.5986 179.119 23.0897C178.293 22.5602 177.643 21.8477 177.168 20.9517C176.693 20.0557 176.456 19.0479 176.456 17.9281V3.35961C176.456 2.91174 176.6 2.54524 176.889 2.2601C177.178 1.97496 177.55 1.83251 178.004 1.83251C178.459 1.83251 178.83 1.97496 179.119 2.2601C179.408 2.54524 179.553 2.91174 179.553 3.35961V17.9281C179.553 18.7424 179.78 19.4246 180.235 19.9744C180.689 20.5241 181.246 20.799 181.907 20.799H182.961C183.332 20.799 183.642 20.9415 183.89 21.2266C184.158 21.5117 184.293 21.8782 184.293 22.3261C184.293 22.774 184.117 23.1405 183.766 23.4256C183.435 23.7108 183.002 23.8532 182.465 23.8532H181.907ZM175.031 10.3842C174.597 10.3842 174.246 10.2621 173.977 10.0177C173.709 9.7734 173.575 9.46798 173.575 9.10148C173.575 8.69417 173.709 8.36847 173.977 8.12414C174.246 7.8798 174.597 7.75764 175.031 7.75764H182.186C182.62 7.75764 182.971 7.8798 183.239 8.12414C183.508 8.36847 183.642 8.69417 183.642 9.10148C183.642 9.46798 183.508 9.7734 183.239 10.0177C182.971 10.2621 182.62 10.3842 182.186 10.3842H175.031ZM194.34 23.9754C192.894 23.9754 191.552 23.7616 190.313 23.334C189.095 22.8861 188.145 22.3261 187.463 21.6542C187.154 21.3285 187.019 20.962 187.061 20.5547C187.123 20.1271 187.329 19.7809 187.68 19.5163C188.093 19.1906 188.496 19.0581 188.888 19.1192C189.301 19.16 189.652 19.333 189.941 19.6384C190.292 20.0252 190.85 20.3917 191.614 20.7379C192.399 21.0636 193.266 21.2266 194.216 21.2266C195.414 21.2266 196.323 21.0331 196.942 20.6463C197.582 20.2595 197.913 19.7606 197.933 19.1498C197.954 18.5389 197.655 18.0094 197.035 17.5616C196.436 17.1137 195.331 16.7472 193.721 16.4621C191.635 16.0548 190.117 15.4439 189.167 14.6296C188.238 13.8152 187.773 12.8173 187.773 11.6365C187.773 10.598 188.083 9.74286 188.702 9.07094C189.322 8.37873 190.117 7.86954 191.088 7.54384C192.058 7.19762 193.07 7.02463 194.123 7.02463C195.486 7.02463 196.694 7.23843 197.748 7.66601C198.801 8.0936 199.637 8.68415 200.257 9.43744C200.546 9.76314 200.68 10.1094 200.659 10.4759C200.638 10.8221 200.463 11.1172 200.133 11.3616C199.802 11.5856 199.41 11.6567 198.956 11.5754C198.501 11.494 198.119 11.3108 197.809 11.0256C197.293 10.5369 196.735 10.201 196.137 10.0177C195.538 9.83449 194.846 9.74286 194.061 9.74286C193.153 9.74286 192.378 9.89557 191.738 10.201C191.119 10.5064 190.809 10.9543 190.809 11.5448C190.809 11.9113 190.902 12.2473 191.088 12.5527C191.294 12.8378 191.686 13.1025 192.265 13.3468C192.843 13.5709 193.69 13.7947 194.805 14.0187C196.354 14.3241 197.572 14.7109 198.46 15.1793C199.368 15.6477 200.019 16.1975 200.411 16.8286C200.804 17.4394 201 18.1521 201 18.9665C201 19.903 200.742 20.7482 200.226 21.5015C199.73 22.2548 198.987 22.8556 197.995 23.3034C197.025 23.7513 195.806 23.9754 194.34 23.9754Z" fill="current"/>
<path d="M8.95404 24.0918C13.8992 24.0918 17.9081 20.0323 17.9081 15.0247C17.9081 10.0171 13.8992 5.95758 8.95404 5.95758C4.00886 5.95758 0 10.0171 0 15.0247C0 20.0323 4.00886 24.0918 8.95404 24.0918Z" fill="current"/>
<path d="M30.2501 24.0918C35.329 24.0918 39.4462 20.0323 39.4462 15.0247C39.4462 10.0171 35.329 5.95758 30.2501 5.95758C25.1713 5.95758 21.0541 10.0171 21.0541 15.0247C21.0541 20.0323 25.1713 24.0918 30.2501 24.0918Z" fill="current"/>
<path d="M51.6672 24.0918C56.6792 24.0918 60.7423 20.0323 60.7423 15.0247C60.7423 10.0171 56.6792 5.95758 51.6672 5.95758C46.6552 5.95758 42.5922 10.0171 42.5922 15.0247C42.5922 20.0323 46.6552 24.0918 51.6672 24.0918Z" fill="current"/>
<path d="M162.504 24.0918C167.516 24.0918 171.579 20.0323 171.579 15.0247C171.579 10.0171 167.516 5.95758 162.504 5.95758C157.492 5.95758 153.429 10.0171 153.429 15.0247C153.429 20.0323 157.492 24.0918 162.504 24.0918Z" fill="current"/>
</svg>
