<svg width="705" height="1237" viewBox="0 0 705 1237" fill="none" xmlns="http://www.w3.org/2000/svg">
<rect x="-191.275" y="448.275" width="633.321" height="633.321" transform="rotate(-45 -191.275 448.275)" fill="black"/>
<path d="M139.5 168.469C134.001 402.969 384.5 471.469 369.5 706.969C365.834 782.313 292.5 931.2 198.5 1008C104.5 1084.8 -145.833 1010 -280.5 952.5" stroke="url(#paint0_linear_80_46)" stroke-width="165" stroke-linecap="round"/>
<path d="M65.8643 262.164C91.3642 484.164 336.5 712 324 819C311.5 926 306.5 1034.1 96.5 1066.5C-113.5 1098.9 -249.833 1076.5 -301.5 1051.5" stroke="url(#paint1_linear_80_46)" stroke-width="165" stroke-linecap="round"/>
<path d="M-21.485 383.969C-28.3344 624.274 296.015 569.969 219.864 841.164C209.743 875.276 167 951.9 77 985.5C-13 1019.1 -102.5 999.5 -136 985.5" stroke="url(#paint2_linear_80_46)" stroke-width="165" stroke-linecap="round"/>
<defs>
<linearGradient id="paint0_linear_80_46" x1="238.775" y1="488.761" x2="374.843" y2="414.792" gradientUnits="userSpaceOnUse">
<stop/>
<stop offset="0.471913" stop-color="#ACACAC"/>
<stop offset="0.793269" stop-color="white"/>
<stop offset="0.9999" stop-color="#8A8A8A"/>
<stop offset="1" stop-color="#666666"/>
</linearGradient>
<linearGradient id="paint1_linear_80_46" x1="132.5" y1="596.5" x2="348" y2="483" gradientUnits="userSpaceOnUse">
<stop/>
<stop offset="0.245192" stop-color="#304A4D"/>
<stop offset="0.557692" stop-color="#77A6AC"/>
</linearGradient>
<linearGradient id="paint2_linear_80_46" x1="36" y1="662.5" x2="235.952" y2="524.098" gradientUnits="userSpaceOnUse">
<stop/>
<stop offset="0.471913" stop-color="#ACACAC"/>
<stop offset="0.792856" stop-color="white"/>
<stop offset="0.9999" stop-color="#8A8A8A"/>
<stop offset="1" stop-color="#666666"/>
</linearGradient>
</defs>
</svg>
